<?xml version="1.0" encoding="utf-8"?>
<!-- Generator: Adobe Illustrator 22.1.0, SVG Export Plug-In . SVG Version: 6.00 Build 0)  -->
<svg version="1.1" id="Layer_1" xmlns="http://www.w3.org/2000/svg" xmlns:xlink="http://www.w3.org/1999/xlink" x="0px" y="0px"
	 viewBox="0 0 62 63.26" style="enable-background:new 0 0 62 63.26;" xml:space="preserve">
<style type="text/css">
	.st0{fill:#F6F5FE;}
	.st1{fill:#C8C8C8;fill-opacity:0;stroke:#6399D1;stroke-width:2;stroke-linejoin:round;}
</style>
<circle class="st0" cx="31.43" cy="32.01" r="30"/>
<path id="Forma_1" class="st1" d="M47.26,27.63c-0.15-0.19-0.39-0.31-0.64-0.31h-3.12c-0.77-2.06-1.77-4.08-2.91-4.84
	c-3.94-2.63-14.39-2.63-18.33,0c-1.14,0.76-2.14,2.78-2.91,4.84h-3.11c-0.25,0-0.48,0.11-0.64,0.31c-0.16,0.19-0.22,0.45-0.17,0.69
	l0.46,2.27c0.08,0.38,0.41,0.66,0.8,0.66h0.92c-0.86,1.03-1.33,2.33-1.33,3.67c-0.03,1.56,0.59,3.06,1.71,4.13
	c0.01,0.01,0.02,0.02,0.04,0.03v3.18c0,0.68,0.55,1.24,1.23,1.25h2.87c0.68-0.01,1.23-0.56,1.23-1.25v-1.28h16.1v1.28
	c-0.01,0.68,0.55,1.24,1.23,1.25h2.87c0.68-0.01,1.23-0.56,1.23-1.25v-3.12c2.19-2.12,2.34-5.58,0.36-7.89h0.98
	c0.39,0,0.73-0.28,0.8-0.66l0.46-2.27C47.47,28.08,47.41,27.83,47.26,27.63z M23.62,24.57c3.14-2.1,12.49-2.1,15.62,0
	c0.61,0.41,1.4,2.05,2.11,4.06H21.51C22.23,26.62,23.01,24.98,23.62,24.57z M19.95,35.24c0.02-1.34,1.12-2.4,2.46-2.38
	s2.4,1.12,2.38,2.46c-0.02,1.32-1.1,2.38-2.42,2.38C21.02,37.69,19.94,36.59,19.95,35.24z M40.54,37.7
	c-1.36,0.02-2.47-1.06-2.49-2.42c-0.02-1.36,1.06-2.47,2.42-2.49c1.36-0.02,2.47,1.06,2.49,2.42c0,0.01,0,0.02,0,0.04
	C42.97,36.59,41.89,37.69,40.54,37.7L40.54,37.7L40.54,37.7z"/>
</svg>
