<?xml version="1.0" encoding="utf-8"?>
<!-- Generator: Adobe Illustrator 22.1.0, SVG Export Plug-In . SVG Version: 6.00 Build 0)  -->
<svg version="1.1" id="Layer_1" xmlns="http://www.w3.org/2000/svg" xmlns:xlink="http://www.w3.org/1999/xlink" x="0px" y="0px"
	 viewBox="0 0 62 63.26" style="enable-background:new 0 0 62 63.26;" xml:space="preserve">
<style type="text/css">
	.st0{fill:#F6F5FE;}
	.st1{fill:#434343;fill-opacity:0;stroke:#518ECB;stroke-width:2;stroke-linejoin:round;}
	.st2{fill:#FFFFFF;stroke:#518ECB;stroke-width:2;stroke-linejoin:round;}
	.st3{fill:#77D7A2;stroke:#518ECB;stroke-width:2;stroke-linejoin:round;}
	.st4{fill:#FFDE4E;stroke:#518ECB;stroke-width:2;stroke-linejoin:round;}
</style>
<circle class="st0" cx="31.43" cy="32.01" r="30"/>
<path id="Shape_1044_copy" class="st1" d="M23.52,43.82c0,0,1.05-2.83,2.43-6.51l6.22-16.68l20.59,7.59l-8.9,23.87L23.52,43.82z"/>
<path class="st2" d="M15.16,43.69c0,0,0.07-3.15,0.16-7.26c0.17-7.65,0.42-18.6,0.42-18.6l22.8,0.51l-0.6,26.62L15.16,43.69z"/>
<path class="st3" d="M21.03,30.89c1.27,0.79,1.8,3.25,3.29,2.88s4.62-5.09,6.14-4.77c1.51,0.32,7.68,6.55,7.68,6.55v7.7l-7.33,0.49
	L16.09,42.7l-0.52-7.03C15.57,35.67,19.76,30.1,21.03,30.89z"/>
<path class="st4" d="M26.85,21.92c1.26,0.03,2.26,1.07,2.23,2.33c-0.03,1.26-1.07,2.26-2.33,2.23c-1.26-0.03-2.26-1.07-2.23-2.33
	c0,0,0,0,0,0C24.55,22.89,25.6,21.9,26.85,21.92z"/>
</svg>
