<?xml version="1.0" encoding="utf-8"?>
<!-- Generator: Adobe Illustrator 22.1.0, SVG Export Plug-In . SVG Version: 6.00 Build 0)  -->
<svg version="1.1" id="Layer_1" xmlns="http://www.w3.org/2000/svg" xmlns:xlink="http://www.w3.org/1999/xlink" x="0px" y="0px"
	 viewBox="0 0 62 63.26" style="enable-background:new 0 0 62 63.26;" xml:space="preserve">
<style type="text/css">
	.st0{fill:#F6F5FE;}
	.st1{fill:#518ECB;}
	.st2{fill:#FFDE4E;}
</style>
<circle class="st0" cx="31.43" cy="32.01" r="30"/>
<path class="st1" d="M44.45,43.19c0.48,1.51-0.36,3.13-1.87,3.61l-12.05,3.83c-1.51,0.48-3.13-0.36-3.61-1.87
	c-0.1-0.3,0.07-0.63,0.37-0.72c0.3-0.1,0.63,0.07,0.72,0.37c0.29,0.91,1.26,1.41,2.17,1.12l12.05-3.83
	c0.91-0.29,1.41-1.26,1.12-2.17c-0.1-0.3,0.07-0.63,0.37-0.72S44.36,42.88,44.45,43.19z"/>
<path class="st1" d="M38.79,25.4c0.1,0.3-0.07,0.63-0.37,0.72s-0.63-0.07-0.72-0.37c-0.15-0.47-0.5-0.86-0.96-1.06
	c-0.29-0.13-0.42-0.47-0.3-0.76c0.13-0.29,0.47-0.42,0.76-0.3C37.96,23.96,38.54,24.6,38.79,25.4z"/>
<path class="st1" d="M38.79,25.4l5.66,17.79c0.1,0.3-0.07,0.63-0.37,0.72c-0.3,0.1-0.63-0.07-0.72-0.37L37.7,25.74
	c-0.1-0.3,0.07-0.63,0.37-0.72C38.37,24.93,38.7,25.09,38.79,25.4z"/>
<path class="st1" d="M26.91,21.68c0.05,0.15,0.03,0.33-0.06,0.47l-4.31,7.05c-0.17,0.27-0.52,0.36-0.79,0.19
	c-0.27-0.17-0.36-0.52-0.19-0.79l4.31-7.05c0.17-0.27,0.52-0.36,0.79-0.19C26.79,21.44,26.87,21.56,26.91,21.68z"/>
<path class="st1" d="M22.6,28.73c0.05,0.15,0.03,0.32-0.06,0.47c-0.26,0.43-0.32,0.94-0.17,1.42c0.1,0.3-0.07,0.63-0.37,0.72
	c-0.3,0.1-0.63-0.07-0.72-0.37c-0.25-0.79-0.15-1.65,0.28-2.36c0.16-0.27,0.52-0.36,0.79-0.19C22.47,28.49,22.56,28.6,22.6,28.73z"
	/>
<path class="st1" d="M22.37,30.62l5.66,17.79c0.1,0.3-0.07,0.63-0.37,0.72c-0.3,0.1-0.63-0.07-0.72-0.37l-5.66-17.79
	c-0.1-0.3,0.07-0.63,0.37-0.72C21.95,30.15,22.28,30.32,22.37,30.62z"/>
<path class="st1" d="M28.23,20.6c0.1,0.3-0.07,0.63-0.37,0.72c-0.42,0.13-0.78,0.42-0.99,0.82c-0.15,0.28-0.5,0.38-0.78,0.23
	c-0.28-0.15-0.38-0.5-0.23-0.78c0.36-0.65,0.94-1.13,1.65-1.36C27.81,20.13,28.14,20.29,28.23,20.6z"/>
<path class="st1" d="M37.53,23.98c0.04,0.13,0.04,0.27-0.02,0.4c-0.13,0.29-0.46,0.43-0.75,0.3l-7.59-3.26
	c-0.29-0.12-0.43-0.46-0.3-0.75c0.13-0.29,0.46-0.43,0.75-0.3l7.59,3.26C37.37,23.69,37.48,23.83,37.53,23.98z"/>
<path class="st1" d="M29.94,20.72c0.04,0.14,0.04,0.29-0.03,0.43c-0.14,0.29-0.48,0.4-0.77,0.27c-0.4-0.2-0.86-0.23-1.28-0.09
	c-0.3,0.1-0.63-0.07-0.72-0.37c-0.1-0.3,0.07-0.63,0.37-0.72c0.71-0.22,1.46-0.17,2.13,0.15C29.79,20.45,29.89,20.58,29.94,20.72z"
	/>
<path class="st1" d="M46.65,42.49c0.48,1.51-0.36,3.13-1.87,3.61l-2.19,0.7c-0.3,0.1-0.63-0.07-0.72-0.37
	c-0.1-0.3,0.07-0.63,0.37-0.72l2.19-0.7c0.91-0.29,1.41-1.26,1.12-2.17c-0.1-0.3,0.07-0.63,0.37-0.72
	C46.23,42.02,46.55,42.19,46.65,42.49z"/>
<path class="st1" d="M40.81,24.15c0.1,0.3-0.07,0.63-0.37,0.72c-0.3,0.1-0.63-0.07-0.72-0.37c-0.15-0.47-0.5-0.86-0.96-1.06
	c-0.29-0.13-0.42-0.47-0.3-0.76c0.13-0.29,0.47-0.42,0.76-0.3C39.98,22.72,40.56,23.36,40.81,24.15z"/>
<path class="st1" d="M40.81,24.15l5.83,18.34c0.1,0.3-0.07,0.63-0.37,0.72c-0.3,0.1-0.63-0.07-0.72-0.37L39.72,24.5
	c-0.1-0.3,0.07-0.63,0.37-0.72C40.39,23.68,40.72,23.85,40.81,24.15z"/>
<path class="st1" d="M39.55,22.73c0.04,0.13,0.04,0.27-0.02,0.4c-0.13,0.29-0.46,0.43-0.75,0.3l-7.68-3.3
	c-0.29-0.12-0.43-0.47-0.3-0.75c0.12-0.29,0.46-0.43,0.75-0.3l7.68,3.3C39.39,22.45,39.5,22.58,39.55,22.73z"/>
<path class="st1" d="M31.87,19.44c0.1,0.3-0.07,0.63-0.37,0.72l-3.64,1.16c-0.3,0.1-0.63-0.07-0.72-0.37
	c-0.1-0.3,0.07-0.63,0.37-0.72l3.64-1.16C31.45,18.97,31.77,19.13,31.87,19.44z"/>
<ellipse class="st2" cx="29.59" cy="26.66" rx="1.15" ry="1.67"/>
<path class="st1" d="M31.78,26.1c0.38,1.21-0.29,2.5-1.49,2.89c-1.21,0.38-2.5-0.29-2.89-1.49c-0.38-1.21,0.29-2.5,1.49-2.89
	S31.39,24.89,31.78,26.1z M28.49,27.15c0.19,0.6,0.84,0.94,1.44,0.75c0.6-0.19,0.94-0.84,0.75-1.44s-0.84-0.94-1.44-0.75
	C28.63,25.9,28.3,26.54,28.49,27.15z"/>
<path class="st1" d="M29.31,20.25c0.1,0.3-0.07,0.63-0.37,0.72c-0.3,0.1-0.63-0.07-0.72-0.37c-0.92-2.89-1.81-4.69-2.34-5.45
	c0.01,0.92,0.32,2.92,1.24,5.8c1.11,3.5,2.09,5.02,2.44,5.28c0.25-0.01,0.5,0.15,0.58,0.4c0.1,0.3-0.07,0.63-0.37,0.72
	c-1.36,0.43-2.78-3.05-3.74-6.05c-0.85-2.66-2.05-7.19-0.62-7.65S28.47,17.59,29.31,20.25z"/>
<path class="st1" d="M29.31,33.52l3.49,10.96c0.1,0.3-0.07,0.63-0.37,0.72c-0.3,0.1-0.63-0.07-0.72-0.37l-3.49-10.96
	c-0.1-0.3,0.07-0.63,0.37-0.72C28.89,33.05,29.22,33.22,29.31,33.52z"/>
<path class="st1" d="M32.05,32.65l3.49,10.96c0.1,0.3-0.07,0.63-0.37,0.72c-0.3,0.1-0.63-0.07-0.72-0.37L30.96,33
	c-0.1-0.3,0.07-0.63,0.37-0.72C31.63,32.18,31.96,32.35,32.05,32.65z"/>
<path class="st1" d="M36.54,37.26l1.74,5.48c0.1,0.3-0.07,0.63-0.37,0.72c-0.3,0.1-0.63-0.07-0.72-0.37l-1.74-5.48
	c-0.1-0.3,0.07-0.63,0.37-0.72C36.12,36.79,36.44,36.96,36.54,37.26z"/>
</svg>
